<?xml version="1.0" encoding="utf-8"?>
<!-- Generator: Adobe Illustrator 15.1.0, SVG Export Plug-In . SVG Version: 6.00 Build 0)  -->
<!DOCTYPE svg PUBLIC "-//W3C//DTD SVG 1.1//EN" "http://www.w3.org/Graphics/SVG/1.1/DTD/svg11.dtd">
<svg version="1.1" id="Ebene_26" xmlns="http://www.w3.org/2000/svg" xmlns:xlink="http://www.w3.org/1999/xlink" x="0px" y="0px"
	 width="779px" height="599px" viewBox="0 0 779 599" enable-background="new 0 0 779 599" xml:space="preserve">
<g>
	<path fill="#D8B78B" d="M516.186,294.616c1.018,7.338,2.47,32.223,10.897,36.275c27.295,13.124,36.864-48.519,39.895-63.366
		c3.021-14.773-1.162-49.536-23.58-41.179c-0.736,0.272-1.266,0.612-1.649,0.988c-9.776-4.219-21.006-3.134-24.576,8.824
		C511.879,253.883,513.685,276.682,516.186,294.616z"/>
	<path fill="#D8B78B" d="M261.536,236.159c-3.565-11.958-14.8-13.043-24.582-8.824c-0.374-0.376-0.903-0.716-1.64-0.988
		c-22.417-8.357-26.605,26.405-23.59,41.179c3.031,14.847,12.61,76.489,39.905,63.366c8.427-4.053,9.875-28.938,10.897-36.275
		C265.018,276.682,266.823,253.883,261.536,236.159z"/>
	<path fill="#7F512E" stroke="#000000" stroke-width="5.6693" stroke-miterlimit="10" d="M541.25,262.228
		c0-81.175-67.834-146.979-151.515-146.979c-83.671,0-151.504,59.629-151.504,146.979c0,163.112,67.833,146.977,151.504,146.977
		C473.416,409.204,541.25,425.34,541.25,262.228z"/>
	<path fill="#D8B78B" stroke="#000000" stroke-width="5.6693" stroke-miterlimit="10" d="M264.955,312.854
		c0,75.445,56.106,136.605,125.314,136.605c69.198,0,125.304-61.16,125.304-136.605c0-75.449-0.664-170.839-125.849-141.136
		C247.935,142.014,264.955,237.405,264.955,312.854z"/>
	<path fill="#FFFFFF" stroke="#000000" stroke-width="2.8347" stroke-miterlimit="10" d="M364.38,272.146
		c0-25.045-15.869-45.351-35.453-45.351c-19.574,0-35.447,20.306-35.447,45.351c0,25.048,15.874,45.354,35.447,45.354
		C348.512,317.5,364.38,297.195,364.38,272.146z"/>
	<path fill="#FFFFFF" stroke="#000000" stroke-width="2.8347" stroke-miterlimit="10" d="M486.597,272.146
		c0-25.045-15.868-45.351-35.452-45.351c-19.574,0-35.443,20.306-35.443,45.351c0,25.048,15.869,45.354,35.443,45.354
		C470.729,317.5,486.597,297.195,486.597,272.146z"/>
	<path d="M316.951,287.885c0,12.345,6.403,22.353,14.301,22.353c7.903,0,14.307-10.007,14.307-22.353
		c0-12.342-6.403-22.35-14.307-22.35C323.354,265.536,316.951,275.543,316.951,287.885z"/>
	<path d="M433.854,287.885c0,12.345,6.403,22.353,14.302,22.353c7.908,0,14.312-10.007,14.312-22.353
		c0-12.342-6.403-22.35-14.312-22.35C440.257,265.536,433.854,275.543,433.854,287.885z"/>
	<path fill="#D8B78B" stroke="#000000" stroke-width="5.6693" stroke-miterlimit="10" d="M545.017,390.588
		c0,51.453-69.524,93.164-155.276,93.164s-155.271-41.711-155.271-93.164c0-51.451,69.52-93.162,155.271-93.162
		S545.017,339.137,545.017,390.588z"/>
	<path d="M243.078,328.065c-0.021,0.002-2.501,0.576-5.999-1.567c-5.443-3.332-12.983-12.82-18.058-39.301
		c-2.979-11.056-4.525-20.007-5.075-27.253c-0.109-1.451-0.176-2.831-0.213-4.146c-0.327-13.165,3.025-19.831,6.71-23.193
		c5.874-5.358,14.467-4.125,18.453-3.147c1.329,0.324,2.148,0.623,2.18,0.636l1.863-4.979c-0.644-0.239-15.791-5.773-26.045,3.536
		c-8.936,8.114-10.814,24.602-5.656,48.95c0.732,3.464,1.609,7.088,2.626,10.871c4.328,22.586,11.208,36.908,20.44,42.56
		c3.222,1.975,6.024,2.416,7.893,2.416c1.318,0,2.174-0.223,2.366-0.28L243.078,328.065z"/>
	<path d="M562.11,228.65c-10.244-9.307-25.396-3.775-26.04-3.536l1.858,4.979c0.124-0.052,12.817-4.626,20.632,2.512
		c0.374,0.334,0.737,0.706,1.101,1.11c5.013,5.674,8.707,18.456,1.92,47.214c-0.478,2.011-1.007,4.097-1.588,6.269l0,0
		c-0.021,0.067-0.031,0.125-0.052,0.192c-4.961,25.938-12.382,35.492-17.737,38.938c-3.632,2.34-6.227,1.751-6.278,1.738
		l-1.484,5.101c0.197,0.057,1.048,0.28,2.377,0.28c1.857,0,4.67-0.444,7.888-2.416c9.247-5.662,16.128-20.01,20.414-42.453
		C573.319,258.073,572.313,237.911,562.11,228.65z"/>
	<path d="M291.545,226.44c0.14,2.986,2.844-2.387,4.696-4.097c3.145-2.898,7.519-5.249,11.919-7.34
		c11.105-5.272,24.535-7.268,37.108-7.529c2.589-0.055,3.14-16.24-2.574-16.118c-27.783,0.573-58.301,12.389-57.398,31.69
		c0.125,2.716,0.249,7.776,3.602,9.589C291.405,233.998,291.565,226.783,291.545,226.44L291.545,226.44z"/>
	<path d="M489.658,226.44c-0.14,2.986-2.844-2.387-4.696-4.097c-3.145-2.898-7.519-5.249-11.919-7.34
		c-11.105-5.272-24.535-7.268-37.108-7.529c-2.59-0.055-3.14-16.24,2.574-16.118c27.782,0.573,58.301,12.389,57.397,31.69
		c-0.125,2.716-0.249,7.776-3.602,9.589C489.799,233.998,489.638,226.783,489.658,226.44L489.658,226.44z"/>
	<path fill="none" stroke="#000000" stroke-width="5.6693" stroke-miterlimit="10" d="M234.469,390.588c0,0,22.018-8.92,28.748,0
		c16.388,21.711,41.296-18.687,58.332,0c17.866,19.597,64.865-15.189,68.518,0c7.997,33.255,50.273-16.569,61.078-5.091
		c10.804,11.479,28.701-8.713,42.172,5.091c25.339,25.964,51.7,0,51.7,0"/>
	<path fill="#33CCFF" d="M459.244,339.29c0,8.142,3.996,14.74,8.926,14.74s8.926-6.598,8.926-14.74c0-8.139-8.49-27.897-8.49-27.897
		S459.244,331.15,459.244,339.29z"/>
</g>
</svg>
